<svg xmlns="http://www.w3.org/2000/svg" viewBox="0 0 800 430"><defs><linearGradient id="n" y2="1"><stop stop-color="#11172e"/><stop offset="1" stop-color="#03040a"/></linearGradient><linearGradient id="r" y2="1"><stop stop-color="#ee3b71"/><stop offset="1" stop-color="#73234e" stop-opacity="0"/></linearGradient></defs><rect width="800" height="430" fill="url(#n)"/><path d="M0 0h150v320H0M650 0h150v320H650M180 70h90v220h-90M535 45h85v250h-85" fill="#070810"/><g opacity=".7"><rect x="28" y="54" width="74" height="120" fill="#b52264"/><rect x="676" y="45" width="72" height="145" fill="#423aa2"/><rect x="192" y="92" width="58" height="80" fill="#2357a3"/><rect x="552" y="84" width="48" height="120" fill="#c6275b"/></g><path d="M260 430 377 220h48l120 210" fill="#10111b"/><path d="M0 350 Q230 310 400 350 T800 335V430H0Z" fill="#06070c"/><path d="M95 430 330 252h14L205 430M705 430 472 250h-14l138 180" fill="url(#r)" opacity=".55"/></svg>
